<svg width="600" height="400" viewBox="0 0 600 400" fill="none" xmlns="http://www.w3.org/2000/svg">
<rect width="600" height="400" rx="10" fill="#FF8C00"/>
<circle cx="300" cy="150" r="80" fill="#FFD700"/>
<path d="M300 150C300 150 250 200 300 230C350 200 300 150 300 150Z" fill="#FF4500"/>
<path d="M250 120C250 120 260 130 270 120C280 110 250 120 250 120Z" fill="#FFFFFF"/>
<path d="M350 120C350 120 340 130 330 120C320 110 350 120 350 120Z" fill="#FFFFFF"/>
<rect x="200" y="250" width="200" height="100" rx="10" fill="#FFD700"/>
<path d="M220 270H380V330H220V270Z" fill="#FF8C00"/>
<text x="300" y="305" font-family="Arial" font-size="24" fill="#FFFFFF" text-anchor="middle" alignment-baseline="middle">Mamahmia</text>
<text x="300" y="335" font-family="Arial" font-size="16" fill="#FFFFFF" text-anchor="middle" alignment-baseline="middle">Warung Makan</text>
</svg>